# Blender v2.78 (sub 0) OBJ File: 'Alley.blend'
# www.blender.org
o Cylinder
v 0.142248 -0.000000 0.364253
v 0.142248 1.000000 0.364253
v -0.175393 -0.000000 0.364310
v -0.175393 1.000000 0.364310
v -0.400040 -0.000000 0.139744
v -0.400040 1.000000 0.139744
v -0.400097 -0.000000 -0.177897
v -0.400097 1.000000 -0.177897
v -0.175531 -0.000000 -0.402544
v -0.175531 1.000000 -0.402544
v 0.142110 -0.000000 -0.402601
v 0.142110 1.000000 -0.402601
v 0.366757 -0.000000 -0.178035
v 0.366757 1.000000 -0.178035
v 0.366814 -0.000000 0.139606
v 0.366814 1.000000 0.139606
vt 0.5391 0.7265
vt 0.5000 0.6015
vt 0.5391 0.6015
vt 0.5000 0.7265
vt 0.4609 0.6015
vt 0.4609 0.7265
vt 0.4219 0.6015
vt 0.7344 0.7265
vt 0.6953 0.6015
vt 0.7344 0.6015
vt 0.6953 0.7265
vt 0.6562 0.6015
vt 0.6562 0.7265
vt 0.6172 0.6015
vt 0.4219 0.5475
vt 0.4516 0.4844
vt 0.5156 0.5132
vt 0.6172 0.7265
vt 0.5781 0.6015
vt 0.5781 0.7265
vt 0.4219 0.7265
vt 0.5156 0.5475
vt 0.4860 0.5781
vt 0.4516 0.5781
vt 0.4219 0.5132
vt 0.4860 0.4844
vn 0.0002 0.0000 1.0000
vn -0.7070 0.0000 0.7072
vn -1.0000 0.0000 0.0002
vn -0.7072 0.0000 -0.7070
vn -0.0002 0.0000 -1.0000
vn 0.7070 0.0000 -0.7072
vn 0.0000 1.0000 -0.0000
vn 1.0000 0.0000 -0.0002
vn 0.7072 0.0000 0.7070
s off
f 2/1/1 3/2/1 1/3/1
f 4/4/2 5/5/2 3/2/2
f 6/6/3 7/7/3 5/5/3
f 8/8/4 9/9/4 7/10/4
f 10/11/5 11/12/5 9/9/5
f 12/13/6 13/14/6 11/12/6
f 14/15/7 10/16/7 6/17/7
f 14/18/8 15/19/8 13/14/8
f 16/20/9 1/3/9 15/19/9
f 2/1/1 4/4/1 3/2/1
f 4/4/2 6/6/2 5/5/2
f 6/6/3 8/21/3 7/7/3
f 8/8/4 10/11/4 9/9/4
f 10/11/5 12/13/5 11/12/5
f 12/13/6 14/18/6 13/14/6
f 6/17/7 4/22/7 2/23/7
f 2/23/7 16/24/7 14/15/7
f 14/15/7 12/25/7 10/16/7
f 10/16/7 8/26/7 6/17/7
f 6/17/7 2/23/7 14/15/7
f 14/18/8 16/20/8 15/19/8
f 16/20/9 2/1/9 1/3/9
