# Blender v2.78 (sub 0) OBJ File: 'Alley.blend'
# www.blender.org
v -0.337009 0.340610 0.872685
v -0.337009 0.535786 0.872685
v -0.337009 0.362702 0.943186
v -0.337009 0.513695 0.943186
v 0.230043 0.340610 0.872685
v 0.230043 0.535786 0.872685
v 0.230043 0.362702 0.943186
v 0.230043 0.513695 0.943186
v -0.337009 0.340610 -0.877309
v -0.337009 0.535786 -0.877309
v -0.337009 0.362702 -0.947810
v -0.337009 0.513695 -0.947810
v 0.230043 0.340610 -0.877309
v 0.230043 0.535786 -0.877309
v 0.230043 0.362702 -0.947810
v 0.230043 0.513695 -0.947810
v -0.441286 0.000000 0.872685
v 0.372779 0.000000 0.872685
v -0.441286 0.000000 -0.877309
v 0.372779 0.000000 -0.877309
v -0.441286 0.922564 -0.877309
v -0.441286 0.922564 0.872685
v 0.372779 0.625888 0.872685
v 0.372779 0.625888 -0.877309
v 0.372779 0.000000 -0.002239
v -0.441286 0.922564 -0.002239
v 0.372779 0.625888 -0.002239
v -0.350211 0.995807 0.057761
v -0.350211 0.995807 0.807476
v 0.350185 0.740556 0.807476
v 0.350185 0.740556 0.057761
v 0.350185 0.740556 -0.062239
v 0.350185 0.740556 -0.812100
v -0.350211 0.995807 -0.812100
v -0.350211 0.995807 -0.062239
v -0.441286 0.842564 0.872685
v -0.441286 0.842564 -0.877309
v 0.372779 0.545888 -0.877309
v 0.372779 0.545888 0.872685
v 0.372779 0.545888 -0.002239
v -0.443576 0.928866 0.898607
v 0.394021 0.623614 0.898607
v 0.394021 0.623614 -0.002239
v 0.394021 0.623614 -0.903232
v -0.443576 0.928866 -0.903232
v -0.443576 0.846554 0.898607
v 0.394021 0.541302 0.898607
v -0.443576 0.846554 -0.903232
v 0.394021 0.541302 -0.903232
v 0.394021 0.541302 -0.002239
vt 0.4329 0.9132
vt 0.4140 0.9847
vt 0.4329 0.9847
vt 0.4410 0.9847
vt 0.4063 0.9132
vt 0.4140 0.9132
vt 0.4140 0.9847
vt 0.4329 0.9132
vt 0.4329 0.9847
vt 0.4410 0.9847
vt 0.4063 0.9132
vt 0.4140 0.9132
vt 0.6294 0.7683
vt 0.7297 0.7578
vt 0.7297 0.7683
vt 0.4037 0.7683
vt 0.5165 0.7578
vt 0.5166 0.7683
vt 0.4932 0.8972
vt 0.4776 0.9872
vt 0.4776 0.8921
vt 0.5869 0.9835
vt 0.4932 0.9835
vt 0.6026 0.8921
vt 0.6026 0.9872
vt 0.5906 0.8816
vt 0.4889 0.8816
vt 0.4932 0.8972
vt 0.5869 0.9835
vt 0.4932 0.9835
vt 0.6026 0.8921
vt 0.6026 0.9872
vt 0.4776 0.8921
vt 0.4776 0.9872
vt 0.5869 0.8972
vt 0.4889 0.8816
vt 0.5906 0.8816
vt 0.5166 0.7960
vt 0.4072 0.8643
vt 0.4072 0.7960
vt 0.6260 0.7960
vt 0.5166 0.8643
vt 0.3057 0.7960
vt 0.3057 0.9014
vt 0.7275 0.7960
vt 0.6260 0.8643
vt 0.7297 0.7473
vt 0.6294 0.7578
vt 0.6294 0.7473
vt 0.3098 0.7473
vt 0.4037 0.7578
vt 0.3098 0.7578
vt 0.5165 0.7473
vt 0.4037 0.7473
vt 0.3098 0.7683
vt 0.4410 0.9132
vt 0.4063 0.9847
vt 0.4410 0.9132
vt 0.4063 0.9847
vt 0.5870 0.8972
vt 0.7275 0.9014
vn 0.0000 0.0000 1.0000
vn 0.0000 -0.9542 0.2990
vn 0.0000 0.9542 0.2990
vn 0.0000 0.0000 -1.0000
vn 0.0000 -0.9542 -0.2990
vn 0.0000 0.9542 -0.2990
vn 0.3359 0.9216 0.1944
vn 0.1065 0.9943 0.0000
vn 0.1870 0.5132 0.8376
vn 0.3424 0.9396 0.0000
vn 0.1762 0.4834 -0.8575
vn 0.9811 0.1933 0.0000
vn 0.1870 0.5132 -0.8376
vn 0.1762 0.4834 0.8575
vn 1.0000 0.0000 0.0000
vn 0.3359 0.9216 -0.1944
s off
f 7/1/1 4/2/1 3/3/1
f 1/4/2 7/1/2 3/3/2
f 6/5/3 4/2/3 8/6/3
f 12/7/4 15/8/4 11/9/4
f 15/8/5 9/10/5 11/9/5
f 12/7/6 14/11/6 16/12/6
f 24/13/7 45/14/7 21/15/7
f 23/16/8 43/17/8 27/18/8
f 30/19/9 22/20/9 23/21/9
f 30/19/10 28/22/10 29/23/10
f 28/22/11 27/24/11 26/25/11
f 27/26/12 30/19/12 23/27/12
f 32/28/10 34/29/10 35/30/10
f 34/29/13 24/31/13 21/32/13
f 27/33/14 35/30/14 26/34/14
f 33/35/12 27/36/12 24/37/12
f 25/38/15 39/39/15 18/40/15
f 20/41/15 40/42/15 25/38/15
f 17/43/1 39/39/1 36/44/1
f 19/45/4 38/46/4 20/41/4
f 48/47/4 44/48/4 49/49/4
f 46/50/1 42/51/1 41/52/1
f 49/49/15 43/17/15 50/53/15
f 50/53/15 42/51/15 47/54/15
f 41/52/16 23/16/16 22/55/16
f 43/17/8 24/13/8 27/18/8
f 7/1/1 8/6/1 4/2/1
f 1/4/2 5/56/2 7/1/2
f 6/5/3 2/57/3 4/2/3
f 12/7/4 16/12/4 15/8/4
f 15/8/5 13/58/5 9/10/5
f 12/7/6 10/59/6 14/11/6
f 24/13/7 44/48/7 45/14/7
f 23/16/8 42/51/8 43/17/8
f 30/19/9 29/23/9 22/20/9
f 30/19/10 31/60/10 28/22/10
f 28/22/11 31/60/11 27/24/11
f 27/26/12 31/60/12 30/19/12
f 32/28/10 33/35/10 34/29/10
f 34/29/13 33/35/13 24/31/13
f 27/33/14 32/28/14 35/30/14
f 33/35/12 32/28/12 27/36/12
f 25/38/15 40/42/15 39/39/15
f 20/41/15 38/46/15 40/42/15
f 17/43/1 18/40/1 39/39/1
f 19/45/4 37/61/4 38/46/4
f 48/47/4 45/14/4 44/48/4
f 46/50/1 47/54/1 42/51/1
f 49/49/15 44/48/15 43/17/15
f 50/53/15 43/17/15 42/51/15
f 41/52/16 42/51/16 23/16/16
f 43/17/8 44/48/8 24/13/8
