# Blender v2.78 (sub 0) OBJ File: 'Alley.blend'
# www.blender.org
o Cube.002_Cube.003
v -0.012989 0.687500 0.687447
v -0.012989 1.562500 0.687447
v -0.012989 0.687500 0.124947
v -0.012989 1.562500 0.124947
v 0.006238 0.687500 0.687447
v 0.006238 1.562500 0.687447
v 0.006238 0.687500 0.124947
v 0.006238 1.562500 0.124947
v -0.030505 0.687500 0.687447
v -0.030505 1.562500 0.687447
v -0.030505 0.687500 0.124947
v -0.030505 1.562500 0.124947
v 0.031995 0.687500 0.687447
v 0.031995 1.562500 0.687447
v 0.031995 0.687500 0.124947
v 0.031995 1.562500 0.124947
v 0.031995 1.687500 -0.000053
v 0.031995 -0.000000 -0.000053
v 0.031995 -0.000000 0.874947
v 0.031995 1.687500 0.874947
v -0.030505 -0.000000 -0.000053
v -0.030505 -0.000000 0.874947
v -0.030505 1.687500 0.874947
v -0.030505 1.687500 -0.000053
vt 0.2341 0.6619
vt 0.1859 0.5870
vt 0.2341 0.5870
vt 0.2341 0.6619
vt 0.1859 0.5870
vt 0.2341 0.5870
vt 0.3984 0.7265
vt 0.0000 0.0000
vt 0.0000 0.0000
vt 0.0000 0.0000
vt 0.0000 0.0000
vt 0.0000 0.0000
vt 0.0000 0.0000
vt 0.3828 0.6016
vt 0.3984 0.7266
vt 0.3828 0.7109
vt 0.3125 0.6016
vt 0.3984 0.5156
vt 0.3125 0.7109
vt 0.2891 0.7266
vt 0.2891 0.5156
vt 0.3125 0.6016
vt 0.3984 0.5156
vt 0.2891 0.5156
vt 0.2891 0.7266
vt 0.3125 0.7109
vt 0.3828 0.7109
vt 0.3828 0.6016
vt 0.0000 0.0000
vt 0.0000 0.0000
vt 0.0000 0.0000
vt 0.0000 0.0000
vt 0.0000 0.0000
vt 0.0000 0.0000
vt 0.0000 0.0000
vt 0.0000 0.0000
vt 0.1859 0.6619
vt 0.1859 0.6619
vt 0.0000 0.0000
vn -1.0000 0.0000 0.0000
vn 1.0000 0.0000 0.0000
vn 0.0000 0.0000 -1.0000
vn 0.0000 0.0000 1.0000
vn 0.0000 -1.0000 0.0000
vn 0.0000 1.0000 0.0000
s off
f 2/1/1 3/2/1 1/3/1
f 8/4/2 5/5/2 7/6/2
f 24/7/3 18/8/3 21/9/3
f 20/10/4 22/11/4 19/12/4
f 18/8/5 22/11/5 21/9/5
f 24/7/6 20/10/6 17/13/6
f 15/14/2 17/15/2 16/16/2
f 13/17/2 18/18/2 15/14/2
f 14/19/2 17/15/2 20/20/2
f 13/17/2 20/20/2 19/21/2
f 9/22/1 21/23/1 22/24/1
f 9/22/1 23/25/1 10/26/1
f 10/26/1 24/7/1 12/27/1
f 11/28/1 24/7/1 21/23/1
f 11/29/6 13/30/6 15/31/6
f 9/32/3 14/33/3 13/30/3
f 12/34/4 15/31/4 16/35/4
f 10/36/5 16/35/5 14/33/5
f 2/1/1 4/37/1 3/2/1
f 8/4/2 6/38/2 5/5/2
f 24/7/3 17/13/3 18/8/3
f 20/10/4 23/39/4 22/11/4
f 18/8/5 19/12/5 22/11/5
f 24/7/6 23/39/6 20/10/6
f 15/14/2 18/18/2 17/15/2
f 13/17/2 19/21/2 18/18/2
f 14/19/2 16/16/2 17/15/2
f 13/17/2 14/19/2 20/20/2
f 9/22/1 11/28/1 21/23/1
f 9/22/1 22/24/1 23/25/1
f 10/26/1 23/25/1 24/7/1
f 11/28/1 12/27/1 24/7/1
f 11/29/6 9/32/6 13/30/6
f 9/32/3 10/36/3 14/33/3
f 12/34/4 11/29/4 15/31/4
f 10/36/5 12/34/5 16/35/5
