# Blender v2.78 (sub 0) OBJ File: 'Alley.blend'
# www.blender.org
o Cylinder
v 0.102825 -0.000000 0.263304
v 0.102825 1.000000 0.263304
v -0.126785 -0.000000 0.263345
v -0.126785 1.000000 0.263345
v -0.289173 -0.000000 0.101015
v -0.289173 1.000000 0.101015
v -0.289214 -0.000000 -0.128595
v -0.289214 1.000000 -0.128595
v -0.126884 -0.000000 -0.290983
v -0.126884 1.000000 -0.290983
v 0.102726 -0.000000 -0.291024
v 0.102726 1.000000 -0.291024
v 0.265114 -0.000000 -0.128694
v 0.265114 1.000000 -0.128694
v 0.265155 -0.000000 0.100916
v 0.265155 1.000000 0.100916
vt 0.5156 0.7265
vt 0.4844 0.6015
vt 0.5156 0.6015
vt 0.4844 0.7265
vt 0.4531 0.6015
vt 0.4531 0.7265
vt 0.4219 0.6015
vt 0.6719 0.7265
vt 0.6406 0.6015
vt 0.6719 0.6015
vt 0.6406 0.7265
vt 0.6094 0.6015
vt 0.6094 0.7265
vt 0.5781 0.6015
vt 0.4219 0.5580
vt 0.4431 0.5078
vt 0.4721 0.5781
vt 0.5781 0.7265
vt 0.5469 0.6015
vt 0.5469 0.7265
vt 0.4219 0.7265
vt 0.4922 0.5290
vt 0.4922 0.5580
vt 0.4431 0.5781
vt 0.4219 0.5290
vt 0.4721 0.5078
vn 0.0002 0.0000 1.0000
vn -0.7070 0.0000 0.7072
vn -1.0000 0.0000 0.0002
vn -0.7072 0.0000 -0.7070
vn -0.0002 0.0000 -1.0000
vn 0.7070 0.0000 -0.7072
vn 0.0000 1.0000 0.0000
vn 1.0000 0.0000 -0.0002
vn 0.7072 0.0000 0.7070
s off
f 2/1/1 3/2/1 1/3/1
f 4/4/2 5/5/2 3/2/2
f 6/6/3 7/7/3 5/5/3
f 8/8/4 9/9/4 7/10/4
f 10/11/5 11/12/5 9/9/5
f 12/13/6 13/14/6 11/12/6
f 14/15/7 10/16/7 2/17/7
f 14/18/8 15/19/8 13/14/8
f 16/20/9 1/3/9 15/19/9
f 2/1/1 4/4/1 3/2/1
f 4/4/2 6/6/2 5/5/2
f 6/6/3 8/21/3 7/7/3
f 8/8/4 10/11/4 9/9/4
f 10/11/5 12/13/5 11/12/5
f 12/13/6 14/18/6 13/14/6
f 6/22/7 4/23/7 2/17/7
f 2/17/7 16/24/7 14/15/7
f 14/15/7 12/25/7 10/16/7
f 10/16/7 8/26/7 6/22/7
f 6/22/7 2/17/7 10/16/7
f 14/18/8 16/20/8 15/19/8
f 16/20/9 2/1/9 1/3/9
