# Blender v2.78 (sub 0) OBJ File: 'Alley.blend'
# www.blender.org
v 0.085887 0.552200 0.346191
v 0.085887 1.891427 0.346191
v 0.085887 0.552200 0.283325
v 0.085887 1.891427 0.283325
v 0.152740 0.552200 0.346191
v 0.152740 1.876759 0.346191
v 0.152740 0.552200 0.283325
v 0.152740 1.876759 0.283325
v 0.085887 1.944576 0.346191
v 0.085887 1.944576 0.283325
v 0.152740 1.944576 0.283325
v 0.152740 1.944576 0.346191
v -0.032932 1.891427 0.346191
v -0.032932 1.891427 0.283325
v -0.032932 1.944576 0.346191
v -0.032932 1.944576 0.283325
v 0.085887 0.500533 0.283325
v 0.085887 0.500533 0.346191
v 0.152740 0.500533 0.283325
v 0.152740 0.500533 0.346191
v -0.032932 0.552200 0.283325
v -0.032932 0.552200 0.346191
v -0.032932 0.500533 0.283325
v -0.032932 0.500533 0.346191
v 0.085887 0.552200 0.221191
v 0.085887 1.891427 0.221191
v 0.085887 0.552200 0.158325
v 0.085887 1.891427 0.158325
v 0.152740 0.552200 0.221191
v 0.152740 1.876759 0.221191
v 0.152740 0.552200 0.158325
v 0.152740 1.876759 0.158325
v 0.085887 1.944576 0.221191
v 0.085887 1.944576 0.158325
v 0.152740 1.944576 0.158325
v 0.152740 1.944576 0.221191
v -0.032932 1.891427 0.221191
v -0.032932 1.891427 0.158325
v -0.032932 1.944576 0.221191
v -0.032932 1.944576 0.158325
v 0.085887 0.500533 0.158325
v 0.085887 0.500533 0.221191
v 0.152740 0.500533 0.158325
v 0.152740 0.500533 0.221191
v -0.032932 0.552200 0.158325
v -0.032932 0.552200 0.221191
v -0.032932 0.500533 0.158325
v -0.032932 0.500533 0.221191
v 0.085887 0.552200 0.096191
v 0.085887 1.891427 0.096191
v 0.085887 0.552200 0.033325
v 0.085887 1.891427 0.033325
v 0.152740 0.552200 0.096191
v 0.152740 1.876759 0.096191
v 0.152740 0.552200 0.033325
v 0.152740 1.876759 0.033325
v 0.085887 1.944576 0.096191
v 0.085887 1.944576 0.033325
v 0.152740 1.944576 0.033325
v 0.152740 1.944576 0.096191
v -0.032932 1.891427 0.096191
v -0.032932 1.891427 0.033325
v -0.032932 1.944576 0.096191
v -0.032932 1.944576 0.033325
v 0.085887 0.500533 0.033325
v 0.085887 0.500533 0.096191
v 0.152740 0.500533 0.033325
v 0.152740 0.500533 0.096191
v -0.032932 0.552200 0.033325
v -0.032932 0.552200 0.096191
v -0.032932 0.500533 0.033325
v -0.032932 0.500533 0.096191
v 0.085887 0.552200 -0.028809
v 0.085887 1.891427 -0.028809
v 0.085887 0.552200 -0.091675
v 0.085887 1.891427 -0.091675
v 0.152740 0.552200 -0.028809
v 0.152740 1.876759 -0.028809
v 0.152740 0.552200 -0.091675
v 0.152740 1.876759 -0.091675
v 0.085887 1.944576 -0.028809
v 0.085887 1.944576 -0.091675
v 0.152740 1.944576 -0.091675
v 0.152740 1.944576 -0.028809
v -0.032932 1.891427 -0.028809
v -0.032932 1.891427 -0.091675
v -0.032932 1.944576 -0.028809
v -0.032932 1.944576 -0.091675
v 0.085887 0.500533 -0.091675
v 0.085887 0.500533 -0.028809
v 0.152740 0.500533 -0.091675
v 0.152740 0.500533 -0.028809
v -0.032932 0.552200 -0.091675
v -0.032932 0.552200 -0.028809
v -0.032932 0.500533 -0.091675
v -0.032932 0.500533 -0.028809
v 0.085887 0.552200 -0.153809
v 0.085887 1.891427 -0.153809
v 0.085887 0.552200 -0.216675
v 0.085887 1.891427 -0.216675
v 0.152740 0.552200 -0.153809
v 0.152740 1.876759 -0.153809
v 0.152740 0.552200 -0.216675
v 0.152740 1.876759 -0.216675
v 0.085887 1.944576 -0.153809
v 0.085887 1.944576 -0.216675
v 0.152740 1.944576 -0.216675
v 0.152740 1.944576 -0.153809
v -0.032932 1.891427 -0.153809
v -0.032932 1.891427 -0.216675
v -0.032932 1.944576 -0.153809
v -0.032932 1.944576 -0.216675
v 0.085887 0.500533 -0.216675
v 0.085887 0.500533 -0.153809
v 0.152740 0.500533 -0.216675
v 0.152740 0.500533 -0.153809
v -0.032932 0.552200 -0.216675
v -0.032932 0.552200 -0.153809
v -0.032932 0.500533 -0.216675
v -0.032932 0.500533 -0.153809
v 0.085887 0.552200 -0.278809
v 0.085887 1.891427 -0.278809
v 0.085887 0.552200 -0.341675
v 0.085887 1.891427 -0.341675
v 0.152740 0.552200 -0.278809
v 0.152740 1.876759 -0.278809
v 0.152740 0.552200 -0.341675
v 0.152740 1.876759 -0.341675
v 0.085887 1.944576 -0.278809
v 0.085887 1.944576 -0.341675
v 0.152740 1.944576 -0.341675
v 0.152740 1.944576 -0.278809
v -0.032932 1.891427 -0.278809
v -0.032932 1.891427 -0.341675
v -0.032932 1.944576 -0.278809
v -0.032932 1.944576 -0.341675
v 0.085887 0.500533 -0.341675
v 0.085887 0.500533 -0.278809
v 0.152740 0.500533 -0.341675
v 0.152740 0.500533 -0.278809
v -0.032932 0.552200 -0.341675
v -0.032932 0.552200 -0.278809
v -0.032932 0.500533 -0.341675
v -0.032932 0.500533 -0.278809
v 0.000002 3.000000 0.499997
v 0.000002 -0.000000 0.499997
v 0.000002 3.000000 -0.500003
v 0.000002 -0.000000 -0.500003
v 0.000002 1.876759 0.499997
v 0.000002 0.558215 0.499997
v 0.000002 0.558215 -0.500003
v 0.000002 1.876759 -0.500003
v 0.000002 1.876759 0.310186
v 0.000002 1.876759 -0.312334
v 0.000002 0.558215 0.310186
v 0.000002 0.558215 -0.312334
v -0.069394 1.876759 0.310186
v -0.069394 1.876759 -0.312334
v -0.069394 0.558215 0.310186
v -0.069394 0.558215 -0.312334
vt 0.2602 0.7654
vt 0.2412 0.7844
vt 0.2412 0.7654
vt 0.2412 0.7654
vt 0.2602 0.7844
vt 0.2412 0.7844
vt 0.2602 0.7654
vt 0.2412 0.7844
vt 0.2412 0.7654
vt 0.2602 0.7654
vt 0.2412 0.7844
vt 0.2412 0.7654
vt 0.2602 0.7654
vt 0.2412 0.7844
vt 0.2412 0.7844
vt 0.2412 0.7654
vt 0.2602 0.7654
vt 0.2412 0.7844
vt 0.2412 0.7654
vt 0.2412 0.7654
vt 0.2602 0.7844
vt 0.2412 0.7844
vt 0.2602 0.7654
vt 0.2412 0.7844
vt 0.2412 0.7654
vt 0.2412 0.7654
vt 0.2602 0.7654
vt 0.2412 0.7844
vt 0.2412 0.7654
vt 0.2602 0.7654
vt 0.2412 0.7844
vt 0.2412 0.7654
vt 0.2602 0.7844
vt 0.2412 0.7844
vt 0.2412 0.7654
vt 0.2602 0.7844
vt 0.2602 0.7654
vt 0.2412 0.7844
vt 0.2412 0.7654
vt 0.2602 0.7654
vt 0.2412 0.7844
vt 0.2602 0.7844
vt 0.2412 0.7844
vt 0.2602 0.7654
vt 0.2412 0.7844
vt 0.2602 0.7654
vt 0.2412 0.7844
vt 0.2412 0.7654
vt 0.2602 0.7654
vt 0.2412 0.7654
vt 0.2602 0.7844
vt 0.2412 0.7844
vt 0.2602 0.7654
vt 0.2412 0.7844
vt 0.2602 0.7654
vt 0.2412 0.7844
vt 0.2412 0.7654
vt 0.2412 0.7654
vt 0.2602 0.7844
vt 0.2412 0.7844
vt 0.2602 0.7654
vt 0.2412 0.7844
vt 0.2412 0.7654
vt 0.2602 0.7654
vt 0.2412 0.7844
vt 0.2412 0.7654
vt 0.2602 0.7654
vt 0.2412 0.7844
vt 0.2412 0.7844
vt 0.2412 0.7654
vt 0.2602 0.7654
vt 0.2412 0.7844
vt 0.2412 0.7654
vt 0.2412 0.7654
vt 0.2602 0.7844
vt 0.2412 0.7844
vt 0.2602 0.7654
vt 0.2412 0.7844
vt 0.2412 0.7654
vt 0.2412 0.7654
vt 0.2602 0.7654
vt 0.2412 0.7844
vt 0.2412 0.7654
vt 0.2602 0.7654
vt 0.2412 0.7844
vt 0.2412 0.7844
vt 0.2412 0.7654
vt 0.2412 0.7654
vt 0.2602 0.7654
vt 0.2412 0.7844
vt 0.2412 0.7654
vt 0.2602 0.7654
vt 0.2412 0.7844
vt 0.2602 0.7654
vt 0.2412 0.7844
vt 0.2602 0.7654
vt 0.2412 0.7844
vt 0.2602 0.7654
vt 0.2412 0.7844
vt 0.2412 0.7654
vt 0.2412 0.7654
vt 0.2602 0.7654
vt 0.2412 0.7844
vt 0.2602 0.7654
vt 0.2412 0.7844
vt 0.2602 0.7654
vt 0.2412 0.7844
vt 0.2412 0.7654
vt 0.2412 0.7654
vt 0.2602 0.7844
vt 0.2412 0.7844
vt 0.2602 0.7654
vt 0.2412 0.7844
vt 0.2412 0.7654
vt 0.2602 0.7654
vt 0.2412 0.7844
vt 0.2412 0.7654
vt 0.2602 0.7654
vt 0.2412 0.7844
vt 0.2412 0.7844
vt 0.2412 0.7654
vt 0.2602 0.7654
vt 0.2412 0.7844
vt 0.2412 0.7654
vt 0.2412 0.7654
vt 0.2602 0.7844
vt 0.2412 0.7844
vt 0.2602 0.7654
vt 0.2412 0.7844
vt 0.2412 0.7654
vt 0.2412 0.7654
vt 0.2602 0.7654
vt 0.2412 0.7844
vt 0.2412 0.7654
vt 0.2602 0.7654
vt 0.2412 0.7844
vt 0.2412 0.7844
vt 0.2412 0.7654
vt 0.2412 0.7654
vt 0.2602 0.7844
vt 0.2602 0.7654
vt 0.2412 0.7844
vt 0.2412 0.7654
vt 0.2602 0.7654
vt 0.2412 0.7844
vt 0.2602 0.7844
vt 0.2412 0.7844
vt 0.2602 0.7654
vt 0.2412 0.7844
vt 0.2602 0.7654
vt 0.2412 0.7844
vt 0.2412 0.7654
vt 0.2602 0.7654
vt 0.2412 0.7654
vt 0.2602 0.7844
vt 0.2412 0.7844
vt 0.2602 0.7654
vt 0.2412 0.7844
vt 0.2602 0.7654
vt 0.2412 0.7844
vt 0.2412 0.7654
vt 0.2412 0.7654
vt 0.2602 0.7844
vt 0.2412 0.7844
vt 0.2602 0.7654
vt 0.2412 0.7844
vt 0.2412 0.7654
vt 0.2602 0.7654
vt 0.2412 0.7844
vt 0.2412 0.7654
vt 0.2602 0.7654
vt 0.2412 0.7844
vt 0.2412 0.7844
vt 0.2412 0.7654
vt 0.2602 0.7654
vt 0.2412 0.7844
vt 0.2412 0.7654
vt 0.2412 0.7654
vt 0.2602 0.7844
vt 0.2412 0.7844
vt 0.2602 0.7654
vt 0.2412 0.7844
vt 0.2412 0.7654
vt 0.2412 0.7654
vt 0.2602 0.7654
vt 0.2412 0.7844
vt 0.2412 0.7654
vt 0.2602 0.7654
vt 0.2412 0.7844
vt 0.2412 0.7654
vt 0.2602 0.7844
vt 0.2412 0.7844
vt 0.2412 0.7654
vt 0.2602 0.7844
vt 0.2602 0.7654
vt 0.2412 0.7844
vt 0.2412 0.7654
vt 0.2602 0.7654
vt 0.2412 0.7844
vt 0.2602 0.7844
vt 0.2412 0.7844
vt 0.2602 0.7654
vt 0.2412 0.7844
vt 0.2602 0.7654
vt 0.2412 0.7844
vt 0.2412 0.7654
vt 0.2602 0.7654
vt 0.2412 0.7654
vt 0.2602 0.7844
vt 0.2412 0.7844
vt 0.2602 0.7654
vt 0.2412 0.7844
vt 0.2602 0.7654
vt 0.2412 0.7844
vt 0.2412 0.7654
vt 0.2412 0.7654
vt 0.2602 0.7844
vt 0.2412 0.7844
vt 0.2602 0.7654
vt 0.2412 0.7844
vt 0.2412 0.7654
vt 0.2602 0.7654
vt 0.2412 0.7844
vt 0.2412 0.7654
vt 0.2602 0.7844
vt 0.2412 0.7844
vt 0.2412 0.7844
vt 0.2412 0.7654
vt 0.2602 0.7654
vt 0.2412 0.7844
vt 0.2412 0.7654
vt 0.2412 0.7654
vt 0.2602 0.7844
vt 0.2412 0.7844
vt 0.2602 0.7654
vt 0.2412 0.7844
vt 0.2412 0.7654
vt 0.2412 0.7654
vt 0.2602 0.7654
vt 0.2412 0.7844
vt 0.2412 0.7654
vt 0.2602 0.7654
vt 0.2412 0.7844
vt 0.2412 0.7844
vt 0.2412 0.7654
vt 0.2412 0.7654
vt 0.2602 0.7844
vt 0.2412 0.7654
vt 0.2602 0.7844
vt 0.2412 0.7844
vt 0.2602 0.7654
vt 0.2412 0.7844
vt 0.2602 0.7844
vt 0.2412 0.7844
vt 0.2602 0.7654
vt 0.2412 0.7844
vt 0.2602 0.7654
vt 0.2412 0.7844
vt 0.2412 0.7654
vt 0.2602 0.7654
vt 0.2412 0.7654
vt 0.2602 0.7844
vt 0.2412 0.7844
vt 0.2602 0.7654
vt 0.2412 0.7844
vt 0.2602 0.7654
vt 0.2412 0.7844
vt 0.2412 0.7654
vt 0.2412 0.7654
vt 0.2602 0.7844
vt 0.2412 0.7844
vt 0.2602 0.7654
vt 0.2412 0.7844
vt 0.2412 0.7654
vt 0.2602 0.7654
vt 0.2412 0.7844
vt 0.2412 0.7654
vt 0.2602 0.7654
vt 0.2412 0.7844
vt 0.2412 0.7844
vt 0.2412 0.7654
vt 0.2602 0.7654
vt 0.2412 0.7844
vt 0.2412 0.7654
vt 0.2412 0.7654
vt 0.2602 0.7844
vt 0.2412 0.7844
vt 0.2602 0.7654
vt 0.2412 0.7844
vt 0.2412 0.7654
vt 0.2412 0.7654
vt 0.2602 0.7654
vt 0.2412 0.7844
vt 0.2412 0.7654
vt 0.2602 0.7654
vt 0.2412 0.7844
vt 0.2412 0.7844
vt 0.2412 0.7654
vt 0.2412 0.7654
vt 0.2602 0.7844
vt 0.2412 0.7654
vt 0.2602 0.7844
vt 0.2412 0.7844
vt 0.2602 0.7654
vt 0.2412 0.7844
vt 0.2602 0.7844
vt 0.2412 0.7844
vt 0.2602 0.7654
vt 0.2412 0.7844
vt 0.2602 0.7654
vt 0.2412 0.7844
vt 0.2412 0.7654
vt 0.2602 0.7654
vt 0.2412 0.7654
vt 0.2602 0.7844
vt 0.2412 0.7844
vt 0.2602 0.7654
vt 0.2412 0.7844
vt 0.1328 0.2109
vt 0.1328 0.2813
vt 0.1094 0.2813
vt 0.0078 0.5859
vt 0.0078 0.4453
vt 0.0312 0.4453
vt 0.1328 0.4453
vt 0.1094 0.4453
vt 0.0078 0.2813
vt 0.1094 0.4375
vt 0.1016 0.2813
vt 0.1328 0.5859
vt 0.0078 0.2109
vt 0.0312 0.2813
vt 0.1484 0.5547
vt 0.2734 0.6875
vt 0.1484 0.6875
vt 0.1328 0.2656
vt 0.0078 0.2734
vt 0.0078 0.2656
vt 0.1094 0.4375
vt 0.0391 0.4375
vt 0.0312 0.2813
vt 0.0391 0.2813
vt 0.2602 0.7844
vt 0.2602 0.7844
vt 0.2602 0.7844
vt 0.2602 0.7844
vt 0.2602 0.7844
vt 0.2602 0.7844
vt 0.2602 0.7844
vt 0.2602 0.7844
vt 0.2602 0.7844
vt 0.2602 0.7844
vt 0.2602 0.7844
vt 0.2602 0.7844
vt 0.2602 0.7654
vt 0.2602 0.7844
vt 0.2602 0.7844
vt 0.2602 0.7844
vt 0.2602 0.7844
vt 0.2602 0.7844
vt 0.2602 0.7844
vt 0.2602 0.7844
vt 0.2602 0.7844
vt 0.2602 0.7844
vt 0.2602 0.7844
vt 0.2602 0.7844
vt 0.2602 0.7844
vt 0.2602 0.7844
vt 0.2602 0.7844
vt 0.2602 0.7844
vt 0.2602 0.7844
vt 0.2602 0.7844
vt 0.2602 0.7844
vt 0.2602 0.7844
vt 0.2602 0.7844
vt 0.2602 0.7844
vt 0.2602 0.7844
vt 0.2602 0.7844
vt 0.2602 0.7844
vt 0.2602 0.7844
vt 0.2602 0.7844
vt 0.2602 0.7844
vt 0.2602 0.7844
vt 0.2602 0.7844
vt 0.2602 0.7844
vt 0.2602 0.7844
vt 0.2602 0.7654
vt 0.2602 0.7844
vt 0.2602 0.7844
vt 0.2602 0.7844
vt 0.2602 0.7844
vt 0.2602 0.7844
vt 0.2602 0.7844
vt 0.2602 0.7844
vt 0.2602 0.7844
vt 0.2602 0.7844
vt 0.2602 0.7844
vt 0.2602 0.7844
vt 0.2602 0.7844
vt 0.2602 0.7844
vt 0.2602 0.7654
vt 0.2602 0.7844
vt 0.2602 0.7844
vt 0.2602 0.7844
vt 0.2602 0.7844
vt 0.2602 0.7654
vt 0.2602 0.7844
vt 0.2602 0.7844
vt 0.2602 0.7844
vt 0.2602 0.7844
vt 0.2602 0.7844
vt 0.2602 0.7844
vt 0.2602 0.7654
vt 0.2602 0.7844
vt 0.2602 0.7844
vt 0.2602 0.7654
vt 0.2602 0.7844
vt 0.2602 0.7844
vt 0.2602 0.7844
vt 0.2602 0.7844
vt 0.2602 0.7844
vt 0.2602 0.7844
vt 0.2602 0.7844
vt 0.2602 0.7844
vt 0.2602 0.7844
vt 0.2602 0.7844
vt 0.2602 0.7844
vt 0.2602 0.7654
vt 0.2602 0.7844
vt 0.2602 0.7844
vt 0.2602 0.7654
vt 0.2602 0.7844
vt 0.1016 0.4375
vt 0.2734 0.5547
vt 0.1328 0.2734
vt 0.0312 0.4375
vt 0.0312 0.4375
vn -1.0000 -0.0000 0.0000
vn 0.0000 0.0000 -1.0000
vn 1.0000 0.0000 0.0000
vn -0.0000 0.0000 1.0000
vn 0.0000 1.0000 0.0000
vn 0.0000 -1.0000 0.0000
s off
f 2/1/1 3/2/1 1/3/1
f 3/4/2 8/5/2 7/6/2
f 8/7/3 5/8/3 7/9/3
f 6/10/4 1/11/4 5/12/4
f 3/13/5 22/14/5 1/3/5
f 2/1/6 14/15/6 4/16/6
f 10/17/5 12/18/5 11/19/5
f 2/20/4 12/21/4 9/22/4
f 4/23/2 11/24/2 8/25/2
f 8/7/3 12/18/3 6/26/3
f 13/27/1 16/28/1 14/29/1
f 9/30/4 13/31/4 2/20/4
f 9/32/5 16/33/5 15/34/5
f 10/35/2 14/36/2 16/28/2
f 19/37/6 18/38/6 17/39/6
f 5/40/3 19/41/3 7/9/3
f 5/12/4 18/42/4 20/43/4
f 7/44/2 17/45/2 3/4/2
f 21/46/1 24/47/1 22/48/1
f 1/49/4 24/47/4 18/50/4
f 3/4/2 23/51/2 21/52/2
f 18/53/6 23/54/6 17/39/6
f 26/55/1 27/56/1 25/57/1
f 27/58/2 32/59/2 31/60/2
f 32/61/3 29/62/3 31/63/3
f 30/64/4 25/65/4 29/66/4
f 27/67/5 46/68/5 25/57/5
f 26/55/6 38/69/6 28/70/6
f 34/71/5 36/72/5 35/73/5
f 26/74/4 36/75/4 33/76/4
f 28/77/2 35/78/2 32/79/2
f 32/61/3 36/72/3 30/80/3
f 37/81/1 40/82/1 38/83/1
f 33/84/4 37/85/4 26/74/4
f 34/71/5 39/86/5 33/87/5
f 28/77/2 40/82/2 34/88/2
f 43/89/6 42/90/6 41/91/6
f 29/92/3 43/93/3 31/63/3
f 25/94/4 44/95/4 29/66/4
f 31/96/2 41/97/2 27/58/2
f 45/98/1 48/99/1 46/100/1
f 25/94/4 48/99/4 42/101/4
f 41/102/2 45/103/2 27/58/2
f 42/104/6 47/105/6 41/91/6
f 50/106/1 51/107/1 49/108/1
f 51/109/2 56/110/2 55/111/2
f 56/112/3 53/113/3 55/114/3
f 54/115/4 49/116/4 53/117/4
f 51/118/5 70/119/5 49/108/5
f 50/106/6 62/120/6 52/121/6
f 58/122/5 60/123/5 59/124/5
f 50/125/4 60/126/4 57/127/4
f 52/128/2 59/129/2 56/130/2
f 56/112/3 60/123/3 54/131/3
f 61/132/1 64/133/1 62/134/1
f 57/135/4 61/136/4 50/125/4
f 58/122/5 63/137/5 57/138/5
f 58/139/2 62/140/2 64/133/2
f 67/141/6 66/142/6 65/143/6
f 53/144/3 67/145/3 55/114/3
f 53/117/4 66/146/4 68/147/4
f 55/148/2 65/149/2 51/109/2
f 69/150/1 72/151/1 70/152/1
f 49/153/4 72/151/4 66/154/4
f 51/109/2 71/155/2 69/156/2
f 66/157/6 71/158/6 65/143/6
f 74/159/1 75/160/1 73/161/1
f 75/162/2 80/163/2 79/164/2
f 80/165/3 77/166/3 79/167/3
f 78/168/4 73/169/4 77/170/4
f 75/171/5 94/172/5 73/161/5
f 74/159/6 86/173/6 76/174/6
f 82/175/5 84/176/5 83/177/5
f 74/178/4 84/179/4 81/180/4
f 76/181/2 83/182/2 80/183/2
f 80/165/3 84/176/3 78/184/3
f 85/185/1 88/186/1 86/187/1
f 81/188/4 85/189/4 74/178/4
f 81/190/5 88/191/5 87/192/5
f 82/193/2 86/194/2 88/186/2
f 91/195/6 90/196/6 89/197/6
f 77/198/3 91/199/3 79/167/3
f 77/170/4 90/200/4 92/201/4
f 79/202/2 89/203/2 75/162/2
f 93/204/1 96/205/1 94/206/1
f 73/207/4 96/205/4 90/208/4
f 75/162/2 95/209/2 93/210/2
f 90/211/6 95/212/6 89/197/6
f 98/213/1 99/214/1 97/215/1
f 99/216/2 104/217/2 103/218/2
f 104/219/3 101/220/3 103/221/3
f 102/222/4 97/223/4 101/224/4
f 97/215/5 117/225/5 118/226/5
f 98/213/6 110/227/6 100/228/6
f 106/229/5 108/230/5 107/231/5
f 98/232/4 108/233/4 105/234/4
f 100/235/2 107/236/2 104/237/2
f 104/219/3 108/230/3 102/238/3
f 109/239/1 112/240/1 110/241/1
f 105/242/4 109/243/4 98/232/4
f 106/229/5 111/244/5 105/245/5
f 106/246/2 110/247/2 112/240/2
f 113/248/6 116/249/6 114/250/6
f 101/251/3 115/252/3 103/221/3
f 101/224/4 114/253/4 116/254/4
f 103/255/2 113/256/2 99/216/2
f 117/257/1 120/258/1 118/259/1
f 97/260/4 120/258/4 114/261/4
f 99/216/2 119/262/2 117/263/2
f 114/264/6 119/265/6 113/248/6
f 122/266/1 123/267/1 121/268/1
f 123/269/2 128/270/2 127/271/2
f 128/272/3 125/273/3 127/274/3
f 126/275/4 121/276/4 125/277/4
f 123/278/5 142/279/5 121/268/5
f 122/266/6 134/280/6 124/281/6
f 130/282/5 132/283/5 131/284/5
f 122/285/4 132/286/4 129/287/4
f 124/288/2 131/289/2 128/290/2
f 128/272/3 132/283/3 126/291/3
f 133/292/1 136/293/1 134/294/1
f 129/295/4 133/296/4 122/285/4
f 130/282/5 135/297/5 129/298/5
f 130/299/2 134/300/2 136/293/2
f 137/301/6 140/302/6 138/303/6
f 125/304/3 139/305/3 127/274/3
f 125/277/4 138/306/4 140/307/4
f 127/308/2 137/309/2 123/269/2
f 141/310/1 144/311/1 142/312/1
f 121/313/4 144/311/4 138/314/4
f 123/269/2 143/315/2 141/316/2
f 138/317/6 143/318/6 137/301/6
f 148/319/3 151/320/3 156/321/3
f 145/322/3 149/323/3 153/324/3
f 156/321/3 152/325/3 154/326/3
f 150/327/3 153/324/3 149/323/3
f 154/328/4 160/329/4 156/321/4
f 147/330/3 153/324/3 154/326/3
f 152/325/3 147/330/3 154/326/3
f 150/327/3 146/331/3 155/332/3
f 148/319/3 155/332/3 146/331/3
f 159/333/3 158/334/3 157/335/3
f 156/336/5 159/337/5 155/338/5
f 153/324/6 158/339/6 154/326/6
f 155/340/2 157/341/2 153/342/2
f 2/1/1 4/343/1 3/2/1
f 3/4/2 4/23/2 8/5/2
f 8/7/3 6/344/3 5/8/3
f 6/10/4 2/345/4 1/11/4
f 3/13/5 21/346/5 22/14/5
f 2/1/6 13/347/6 14/15/6
f 10/17/5 9/348/5 12/18/5
f 2/20/4 6/10/4 12/21/4
f 4/23/2 10/349/2 11/24/2
f 8/7/3 11/350/3 12/18/3
f 13/27/1 15/351/1 16/28/1
f 9/30/4 15/351/4 13/31/4
f 9/32/5 10/17/5 16/33/5
f 10/35/2 4/23/2 14/36/2
f 19/37/6 20/352/6 18/38/6
f 5/40/3 20/352/3 19/41/3
f 5/12/4 1/49/4 18/42/4
f 7/44/2 19/353/2 17/45/2
f 21/46/1 23/51/1 24/47/1
f 1/49/4 22/354/4 24/47/4
f 3/4/2 17/355/2 23/51/2
f 18/53/6 24/356/6 23/54/6
f 26/55/1 28/357/1 27/56/1
f 27/58/2 28/77/2 32/59/2
f 32/61/3 30/358/3 29/62/3
f 30/64/4 26/359/4 25/65/4
f 27/67/5 45/360/5 46/68/5
f 26/55/6 37/361/6 38/69/6
f 34/71/5 33/362/5 36/72/5
f 26/74/4 30/64/4 36/75/4
f 28/77/2 34/363/2 35/78/2
f 32/61/3 35/364/3 36/72/3
f 37/81/1 39/365/1 40/82/1
f 33/84/4 39/365/4 37/85/4
f 34/71/5 40/366/5 39/86/5
f 28/77/2 38/367/2 40/82/2
f 43/89/6 44/368/6 42/90/6
f 29/92/3 44/368/3 43/93/3
f 25/94/4 42/369/4 44/95/4
f 31/96/2 43/370/2 41/97/2
f 45/98/1 47/371/1 48/99/1
f 25/94/4 46/372/4 48/99/4
f 41/102/2 47/371/2 45/103/2
f 42/104/6 48/373/6 47/105/6
f 50/106/1 52/374/1 51/107/1
f 51/109/2 52/128/2 56/110/2
f 56/112/3 54/375/3 53/113/3
f 54/115/4 50/376/4 49/116/4
f 51/118/5 69/377/5 70/119/5
f 50/106/6 61/378/6 62/120/6
f 58/122/5 57/379/5 60/123/5
f 50/125/4 54/115/4 60/126/4
f 52/128/2 58/380/2 59/129/2
f 56/112/3 59/381/3 60/123/3
f 61/132/1 63/382/1 64/133/1
f 57/135/4 63/382/4 61/136/4
f 58/122/5 64/383/5 63/137/5
f 58/139/2 52/128/2 62/140/2
f 67/141/6 68/384/6 66/142/6
f 53/144/3 68/384/3 67/145/3
f 53/117/4 49/153/4 66/146/4
f 55/148/2 67/385/2 65/149/2
f 69/150/1 71/155/1 72/151/1
f 49/153/4 70/386/4 72/151/4
f 51/109/2 65/387/2 71/155/2
f 66/157/6 72/388/6 71/158/6
f 74/159/1 76/389/1 75/160/1
f 75/162/2 76/181/2 80/163/2
f 80/165/3 78/390/3 77/166/3
f 78/168/4 74/391/4 73/169/4
f 75/171/5 93/392/5 94/172/5
f 74/159/6 85/393/6 86/173/6
f 82/175/5 81/394/5 84/176/5
f 74/178/4 78/168/4 84/179/4
f 76/181/2 82/395/2 83/182/2
f 80/165/3 83/396/3 84/176/3
f 85/185/1 87/397/1 88/186/1
f 81/188/4 87/397/4 85/189/4
f 81/190/5 82/175/5 88/191/5
f 82/193/2 76/181/2 86/194/2
f 91/195/6 92/398/6 90/196/6
f 77/198/3 92/398/3 91/199/3
f 77/170/4 73/207/4 90/200/4
f 79/202/2 91/399/2 89/203/2
f 93/204/1 95/209/1 96/205/1
f 73/207/4 94/400/4 96/205/4
f 75/162/2 89/401/2 95/209/2
f 90/211/6 96/402/6 95/212/6
f 98/213/1 100/403/1 99/214/1
f 99/216/2 100/235/2 104/217/2
f 104/219/3 102/404/3 101/220/3
f 102/222/4 98/405/4 97/223/4
f 97/215/5 99/406/5 117/225/5
f 98/213/6 109/407/6 110/227/6
f 106/229/5 105/408/5 108/230/5
f 98/232/4 102/222/4 108/233/4
f 100/235/2 106/409/2 107/236/2
f 104/219/3 107/410/3 108/230/3
f 109/239/1 111/411/1 112/240/1
f 105/242/4 111/411/4 109/243/4
f 106/229/5 112/412/5 111/244/5
f 106/246/2 100/235/2 110/247/2
f 113/248/6 115/413/6 116/249/6
f 101/251/3 116/249/3 115/252/3
f 101/224/4 97/260/4 114/253/4
f 103/255/2 115/414/2 113/256/2
f 117/257/1 119/262/1 120/258/1
f 97/260/4 118/415/4 120/258/4
f 99/216/2 113/416/2 119/262/2
f 114/264/6 120/417/6 119/265/6
f 122/266/1 124/418/1 123/267/1
f 123/269/2 124/288/2 128/270/2
f 128/272/3 126/419/3 125/273/3
f 126/275/4 122/420/4 121/276/4
f 123/278/5 141/421/5 142/279/5
f 122/266/6 133/422/6 134/280/6
f 130/282/5 129/423/5 132/283/5
f 122/285/4 126/275/4 132/286/4
f 124/288/2 130/424/2 131/289/2
f 128/272/3 131/425/3 132/283/3
f 133/292/1 135/426/1 136/293/1
f 129/295/4 135/426/4 133/296/4
f 130/282/5 136/427/5 135/297/5
f 130/299/2 124/288/2 134/300/2
f 137/301/6 139/428/6 140/302/6
f 125/304/3 140/302/3 139/305/3
f 125/277/4 121/313/4 138/306/4
f 127/308/2 139/429/2 137/309/2
f 141/310/1 143/315/1 144/311/1
f 121/313/4 142/430/4 144/311/4
f 123/269/2 137/431/2 143/315/2
f 138/317/6 144/432/6 143/318/6
f 156/321/3 151/320/3 152/325/3
f 150/327/3 155/332/3 153/324/3
f 154/328/4 158/433/4 160/329/4
f 147/330/3 145/322/3 153/324/3
f 148/319/3 156/321/3 155/332/3
f 159/333/3 160/434/3 158/334/3
f 156/336/5 160/435/5 159/337/5
f 153/324/6 157/436/6 158/339/6
f 155/340/2 159/437/2 157/341/2
